<?xml version="1.0" standalone="no"?>
<!DOCTYPE svg PUBLIC "-//W3C//DTD SVG 20010904//EN"
 "http://www.w3.org/TR/2001/REC-SVG-20010904/DTD/svg10.dtd">
<svg version="1.0" xmlns="http://www.w3.org/2000/svg"
 width="200.000000pt" height="69.000000pt" viewBox="0 0 200.000000 69.000000"
 preserveAspectRatio="xMidYMid meet">

<g transform="translate(0.000000,69.000000) scale(0.100000,-0.100000)"
fill="#000000" stroke="none">
<path d="M510 345 l0 -245 30 0 30 0 0 83 0 83 43 42 43 43 89 -126 c88 -124
90 -125 128 -125 46 0 55 -19 -80 164 l-92 125 102 100 102 101 -40 0 c-38 0
-47 -6 -160 -120 -66 -66 -123 -120 -127 -120 -5 0 -8 54 -8 120 l0 120 -30 0
-30 0 0 -245z"/>
<path d="M940 583 c0 -5 28 -115 62 -245 l63 -238 32 0 c36 0 28 -20 99 235
26 94 50 174 54 178 4 5 27 -62 51 -147 24 -86 46 -156 50 -156 4 0 11 17 16
38 9 33 4 60 -32 188 l-42 149 -39 0 -39 0 -55 -195 c-31 -107 -58 -201 -61
-209 -3 -7 -17 42 -33 110 -74 326 -65 299 -97 299 -16 0 -29 -3 -29 -7z"/>
<path d="M1496 538 c-8 -29 -31 -115 -51 -191 -20 -76 -43 -157 -51 -179 -21
-61 -19 -70 18 -66 l31 3 57 216 c31 118 60 227 64 242 6 25 4 27 -23 27 -27
0 -31 -4 -45 -52z"/>
<path d="M195 454 c-72 -58 -131 -111 -133 -118 -2 -7 57 -61 130 -120 102
-82 139 -106 158 -104 51 6 30 39 -82 128 -59 47 -107 88 -107 92 -1 3 47 45
107 93 75 62 107 94 107 109 0 15 -7 22 -25 23 -19 2 -57 -23 -155 -103z"/>
<path d="M1642 548 c-7 -7 -12 -15 -12 -20 0 -5 149 -131 218 -184 11 -8 -10
-30 -102 -104 -76 -61 -115 -99 -111 -108 3 -7 5 -16 5 -18 0 -2 12 -4 28 -4
19 0 61 28 152 103 69 57 126 110 128 119 2 10 -27 40 -75 79 -43 35 -102 82
-131 106 -54 44 -79 52 -100 31z"/>
</g>
</svg>
